<svg version="1.0" xmlns="http://www.w3.org/2000/svg" width="340.000000pt" height="270.000000pt"
    viewBox="0 0 340.000000 270.000000" preserveAspectRatio="xMidYMid meet">
    <metadata>
        Created by potrace 1.16, written by Peter Selinger 2001-2019
    </metadata>
    <g transform="translate(0.000000,270.000000) scale(0.100000,-0.100000)" fill="#000000" stroke="none">
        <path d="M2312 2460 c-140 -64 -250 -208 -315 -415 -41 -132 -52 -217 -51
-400 1 -185 16 -271 68 -372 132 -262 467 -110 596 269 50 150 64 238 65 418
0 274 -51 429 -167 500 -44 27 -137 27 -196 0z m138 -118 c44 -55 55 -124 55
-332 0 -116 -5 -225 -13 -270 -48 -271 -142 -462 -239 -486 -99 -25 -147 98
-146 371 2 305 79 591 188 701 59 59 117 65 155 16z" />
        <path d="M1545 2278 c-179 -65 -323 -293 -371 -588 -19 -117 -18 -351 2 -448
20 -102 73 -212 118 -246 55 -41 120 -52 192 -31 126 36 225 131 300 290 106
223 137 514 84 767 -28 131 -86 225 -157 254 -38 16 -125 17 -168 2z m119
-123 c43 -46 61 -149 60 -340 -1 -386 -118 -724 -258 -751 -104 -19 -156 134
-143 426 14 312 102 591 210 668 44 31 101 30 131 -3z" />
        <path d="M900 2143 c-17 -14 -64 -69 -105 -122 -40 -53 -100 -121 -134 -152
-33 -31 -61 -60 -61 -66 0 -6 9 -22 21 -37 15 -19 30 -26 53 -26 50 0 150 55
197 108 l42 47 -6 -120 c-8 -147 -38 -380 -72 -546 -59 -286 -92 -546 -75
-579 12 -23 56 -27 83 -7 19 13 59 137 112 347 98 387 152 763 143 994 -3 95
-6 107 -28 132 -29 30 -78 54 -114 54 -13 0 -39 -12 -56 -27z" />
        <path d="M2405 1053 c-409 -33 -963 -179 -1138 -300 -21 -15 -44 -38 -51 -52
-40 -79 30 -70 429 51 485 147 614 177 860 198 164 14 172 16 178 39 13 53
-99 79 -278 64z" />
        <path d="M2485 764 c-16 -2 -82 -11 -145 -20 -415 -56 -1002 -225 -1265 -362
-75 -40 -155 -109 -155 -134 0 -9 6 -21 14 -27 23 -20 183 24 634 173 519 172
728 225 1022 261 74 9 145 20 158 25 32 14 29 53 -5 70 -28 13 -197 22 -258
14z" />
    </g>
</svg>